<?xml version="1.0" encoding="UTF-8"?>
<svg width="82.887" height="82.902" version="1.1" viewBox="0 0 82.887 82.902" xml:space="preserve" xmlns="http://www.w3.org/2000/svg"><defs><clipPath id="be"><path d="m0 0h612v792h-612z"/></clipPath><clipPath id="q"><path d="m109.11 664.44v-62.362h62.362v62.362h-62.362"/></clipPath><clipPath id="n"><path d="m0 0h612v792h-612z"/></clipPath><clipPath id="c"><path d="m0 0h612v792h-612z"/></clipPath><clipPath id="bq"><path d="m185.89 664.44v-62.362h62.362v62.362h-62.362"/></clipPath><clipPath id="bp"><path d="m0 0h612v792h-612z"/></clipPath><clipPath id="bo"><path d="m0 0h612v792h-612z"/></clipPath><clipPath id="bn"><path d="m262.66 664.44v-62.362h62.362v62.362h-62.362"/></clipPath><clipPath id="bm"><path d="m0 0h612v792h-612z"/></clipPath><clipPath id="bl"><path d="m0 0h612v792h-612z"/></clipPath><clipPath id="bk"><path d="m339.44 664.44v-62.362h62.363v62.362h-62.363"/></clipPath><clipPath id="bj"><path d="m0 0h612v792h-612z"/></clipPath><clipPath id="bi"><path d="m0 0h612v792h-612z"/></clipPath><clipPath id="bh"><path d="m416.22 664.44v-62.362h62.362v62.362h-62.362"/></clipPath><clipPath id="bg"><path d="m0 0h612v792h-612z"/></clipPath><clipPath id="bf"><path d="m0 0h612v792h-612z"/></clipPath><clipPath id="bd"><path d="m492.99 664.44v-62.362h62.362v62.362h-62.362"/></clipPath><clipPath id="bc"><path d="m0 0h612v792h-612z"/></clipPath><clipPath id="bb"><path d="m0 0h612v792h-612z"/></clipPath><clipPath id="ba"><path d="m109.11 560.98v-62.362h62.362v62.362h-62.362"/></clipPath><clipPath id="az"><path d="m0 0h612v792h-612z"/></clipPath><clipPath id="ay"><path d="m0 0h612v792h-612z"/></clipPath><clipPath id="ax"><path d="m185.89 560.98v-62.362h62.362v62.362h-62.362"/></clipPath><clipPath id="aw"><path d="m0 0h612v792h-612z"/></clipPath><clipPath id="av"><path d="m0 0h612v792h-612z"/></clipPath><clipPath id="au"><path d="m262.66 560.98v-62.362h62.362v62.362h-62.362"/></clipPath><clipPath id="at"><path d="m0 0h612v792h-612z"/></clipPath><clipPath id="as"><path d="m0 0h612v792h-612z"/></clipPath><clipPath id="ar"><path d="m109.11 457.51v-62.362h62.362v62.362h-62.362"/></clipPath><clipPath id="aq"><path d="m0 0h612v792h-612z"/></clipPath><clipPath id="ap"><path d="m0 0h612v792h-612z"/></clipPath><clipPath id="ao"><path d="m185.89 457.51v-62.362h62.362v62.362h-62.362"/></clipPath><clipPath id="an"><path d="m0 0h612v792h-612z"/></clipPath><clipPath id="am"><path d="m0 0h612v792h-612z"/></clipPath><clipPath id="al"><path d="m262.66 457.51v-62.362h62.362v62.362h-62.362"/></clipPath><clipPath id="ak"><path d="m0 0h612v792h-612z"/></clipPath><clipPath id="aj"><path d="m0 0h612v792h-612z"/></clipPath><clipPath id="ai"><path d="m339.44 457.51v-62.362h62.363v62.362h-62.363"/></clipPath><clipPath id="ah"><path d="m0 0h612v792h-612z"/></clipPath><clipPath id="ag"><path d="m0 0h612v792h-612z"/></clipPath><clipPath id="af"><path d="m416.22 457.51v-62.362h62.362v62.362h-62.362"/></clipPath><clipPath id="ae"><path d="m0 0h612v792h-612z"/></clipPath><clipPath id="ad"><path d="m0 0h612v792h-612z"/></clipPath><clipPath id="ac"><path d="m492.99 457.51v-62.362h62.362v62.362h-62.362"/></clipPath><clipPath id="ab"><path d="m0 0h612v792h-612z"/></clipPath><clipPath id="aa"><path d="m0 0h612v792h-612z"/></clipPath><clipPath id="z"><path d="m109.11 354.05v-62.362h62.362v62.362h-62.362"/></clipPath><clipPath id="y"><path d="m0 0h612v792h-612z"/></clipPath><clipPath id="x"><path d="m0 0h612v792h-612z"/></clipPath><clipPath id="w"><path d="m185.89 354.05v-62.362h62.362v62.362h-62.362"/></clipPath><clipPath id="v"><path d="m0 0h612v792h-612z"/></clipPath><clipPath id="u"><path d="m0 0h612v792h-612z"/></clipPath><clipPath id="t"><path d="m109.11 250.87v-62.362h62.362v62.362h-62.362"/></clipPath><clipPath id="s"><path d="m0 0h612v792h-612z"/></clipPath><clipPath id="r"><path d="m0 0h612v792h-612z"/></clipPath><clipPath id="p"><path d="m185.89 250.87v-62.362h62.362v62.362h-62.362"/></clipPath><clipPath id="o"><path d="m0 0h612v792h-612z"/></clipPath><clipPath id="m"><path d="m0 0h612v792h-612z"/></clipPath><clipPath id="l"><path d="m262.66 250.87v-62.362h62.362v62.362h-62.362"/></clipPath><clipPath id="k"><path d="m0 0h612v792h-612z"/></clipPath><clipPath id="j"><path d="m0 0h612v792h-612z"/></clipPath><clipPath id="i"><path d="m339.44 250.87v-62.362h62.363v62.362h-62.363"/></clipPath><clipPath id="h"><path d="m0 0h612v792h-612z"/></clipPath><clipPath id="g"><path d="m0 0h612v792h-612z"/></clipPath><clipPath id="f"><path d="m416.22 250.87v-62.362h62.362v62.362h-62.362"/></clipPath><clipPath id="e"><path d="m0 0h612v792h-612z"/></clipPath><clipPath id="d"><path d="m0 0h612v792h-612z"/></clipPath><clipPath id="b"><path d="m492.99 250.87v-62.362h62.362v62.362h-62.362"/></clipPath><clipPath id="a"><path d="m0 0h612v792h-612z"/></clipPath><clipPath id="bx"><path d="m0 0h612v792h-612z"/></clipPath><clipPath id="bw"><path d="m109.11 147.4v-62.363h62.362v62.363h-62.362"/></clipPath><clipPath id="bv"><path d="m0 0h612v792h-612z"/></clipPath><clipPath id="bu"><path d="m0 0h612v792h-612z"/></clipPath><clipPath id="bt"><path d="m185.89 147.4v-62.363h62.362v62.363h-62.362"/></clipPath><clipPath id="bs"><path d="m0 0h612v792h-612z"/></clipPath><clipPath id="br"><path d="m0 0h612v792h-612z"/></clipPath></defs><g transform="matrix(1.3333 0 0 -1.3333 -657.45 885.8)"><g clip-path="url(#be)"><g transform="translate(56.693,749.48)"><path d="m0 0h498.61" fill="none" stroke="#231f20"/></g><g transform="translate(56.835,42.52)"><path d="m0 0h498.61" fill="none" stroke="#231f20" stroke-width=".5"/></g><g transform="translate(56.835 706.71)"><path d="m0 0h498.61" fill="none" stroke="#231f20" stroke-width=".25"/></g><g fill="#231f20"><g font-family="'Franklin Gothic Book'"><g font-size="9px"><text transform="matrix(1 0 0 -1 108.71 757.35)"><tspan x="0 5.2767 7.5293999 12.8061" y="0">2.0 </tspan></text><text transform="matrix(1 0 0 -1 126.02 757.35)" font-weight="500"><tspan x="0 5.7771001 8.7642002 13.6323 18.482401 23.359501 25.563601 29.756701 32.006699 36.838799 39.0429 43.757999 51.587101 56.3022 61.179298 64.076401 68.161499" y="0">Graphic Elements </tspan></text><text transform="matrix(1 0 0 -1 320.3 757.35)" font-weight="500"><tspan x="0 3.8420999 8.6021996 11.5353 16.295401 21.172501 23.9076 28.6677 30.9177 34.804798 37.791901 42.66 47.537102 51.6222 53.826302 56.7234 58.9734 64.183502 68.943604 76.772697 84.601799 86.805901 90.890999 94.976097 97.180199 101.9403 106.8174" y="0">Toronto Transit Commission </tspan></text><text transform="matrix(1 0 0 -1 429.37 757.35)"><tspan x="0 4.5 6.75 11.871 13.932 18.351 23.229 27.99 32.409 37.098 39.348 46.638 51.398998 56.277 61.154999 65.916 67.986 70.236 74.997002 79.875 84.725998 86.975998 92.097 94.869003 99.629997 104.508 109.359 114.12 116.946 121.797 125.973" y="0">| Signage Manual and Standards </tspan></text></g><text transform="matrix(1 0 0 -1 56.693 711.33)" font-size="14px"><tspan x="0 8.2068005 11.7096" y="0">2.7</tspan></text><text transform="matrix(1 0 0 -1 109.69 711.33)" font-size="14px" font-weight="500"><tspan x="0 8.4420004 13.09 17.639999 24.92 34.678001 41.034" y="0">Arrows </tspan></text><text transform="matrix(1 0 0 -1 56.693 685.78)" font-size="10px"><tspan x="0 5.8649998 8.3699999 13.135 15.63 21.495001" y="0">2.7.3 </tspan></text><text transform="matrix(1 0 0 -1 108.69 685.78)" font-size="10px" font-weight="500"><tspan x="0 6.5489998 8.9980001 12.317 17.556 22.215 25.434 27.882999 33.172001 38.591 43.130001" y="0">Directions </tspan></text></g><path d="m109.16 602.13h62.299v62.299h-62.299z"/></g></g><g clip-path="url(#q)"><g clip-path="url(#n)"><path d="m109.16 602.14h62.299v62.299h-62.299z" fill="none" stroke="#231f20" stroke-miterlimit="22.926" stroke-width=".012"/></g></g><g clip-path="url(#c)"><path d="m125.61 619.92c0-0.347 0.124-0.699 0.387-0.962s0.605-0.388 0.947-0.388h27.292v6.697h-17.201l19.96 19.961-4.735 4.736-19.953-19.953v17.201h-6.697v-27.292" fill="#fff" fill-rule="evenodd"/><g fill="#231f20"><g font-family="'Franklin Gothic Book'"><g font-size="7px"><text transform="matrix(1 0 0 -1 124.27 591.51)"><tspan x="0 4.5282998 6.2775998 10.1129 14.2212 16.1525 19.903799 24.0051 27.847401 31.9487" y="0">G-01-A001 </tspan></text><text transform="matrix(1 0 0 -1 200.91 591.51)"><tspan x="0 4.5289998 6.2789998 10.115 14.224 16.156 19.908001 24.01 28.112 32.214001" y="0">G-01-A002 </tspan></text><text transform="matrix(1 0 0 -1 277.69 591.51)"><tspan x="0 4.5310998 6.2831998 10.1213 14.2254 16.1595 19.913601 24.0177 28.121799 32.225899" y="0">G-01-A003 </tspan></text><text transform="matrix(1 0 0 -1 354.46 591.51)"><tspan x="0 4.5296998 6.2803998 10.1171 14.2198 16.1525 19.905199 24.0079 28.1106 32.213299" y="0">G-01-A004 </tspan></text><text transform="matrix(1 0 0 -1 431.24 591.51)"><tspan x="0 4.5310998 6.2831998 10.1213 14.2254 16.1595 19.913601 24.0177 28.121799 32.225899" y="0">G-01-A005 </tspan></text></g><g font-size="6px"><text transform="matrix(1 0 0 -1 129.09 584.31)"><tspan x="0 3.882 5.256 8.4300003 11.376 14.496 17.747999 20.922001 22.302" y="0">Diagonal </tspan></text><text transform="matrix(1 0 0 -1 205.87 584.31)"><tspan x="0 3.882 5.256 8.4300003 11.376 14.496 17.747999 20.922001 22.302" y="0">Diagonal </tspan></text><text transform="matrix(1 0 0 -1 282.65 584.31)"><tspan x="0 3.882 5.256 8.4300003 11.376 14.496 17.747999 20.922001 22.302" y="0">Diagonal </tspan></text><text transform="matrix(1 0 0 -1 359.42 584.31)"><tspan x="0 3.882 5.256 8.4300003 11.376 14.496 17.747999 20.922001 22.302" y="0">Diagonal </tspan></text><text transform="matrix(1 0 0 -1 440.27 584.31)"><tspan x="0 3.8808 6.9215999 10.9044 14.1552" y="0">Down </tspan></text><text transform="matrix(1 0 0 -1 127.07 577.11)"><tspan x="0 2.9394 5.9808002 9.8802004 13.0056 14.985 16.478399 19.417801 22.5432 24.510599 26.358" y="0">Lower Left </tspan></text><text transform="matrix(1 0 0 -1 202.23 577.11)"><tspan x="0 2.9388001 5.9796 9.8783998 13.0032 14.982 16.482 20.1588 21.531601 24.4764 27.7152 29.562" y="0">Lower Right </tspan></text><text transform="matrix(1 0 0 -1 280.55 577.11)"><tspan x="0 3.6282001 6.8243999 10.0326 13.1568 15.129 16.629 19.561199 22.679399 24.645599 26.4858" y="0">Upper Left </tspan></text><text transform="matrix(1 0 0 -1 355.72 577.11)"><tspan x="0 3.6287999 6.8256001 10.0284 13.1532 15.126 16.625999 20.296801 21.663601 24.614401 27.853201 29.694" y="0">Upper Right </tspan></text><text transform="matrix(1 0 0 -1 428.7 577.11)"><tspan x="0 3.414 5.2620001 7.2420001 10.416 11.79 14.736 17.976 19.823999 21.3216 24.5376 27.777599 30.903601 34.077599 37.3116" y="0">Straight Ahead </tspan></text></g></g><path d="m185.94 602.13h62.299v62.299h-62.299z"/></g></g><g clip-path="url(#bq)"><g clip-path="url(#bp)"><path d="m185.94 602.14h62.299v62.299h-62.299z" fill="none" stroke="#231f20" stroke-miterlimit="22.926" stroke-width=".012"/></g></g><g clip-path="url(#bo)"><path d="m231.79 619.92c0-0.347-0.124-0.699-0.387-0.962s-0.605-0.388-0.947-0.388h-27.292v6.697h17.201l-19.96 19.961 4.735 4.736 19.953-19.953v17.201h6.697v-27.292" fill="#fff" fill-rule="evenodd"/><path d="m262.72 602.13h62.299v62.299h-62.299z" fill="#231f20"/></g><g clip-path="url(#bn)"><g clip-path="url(#bm)"><path d="m262.72 602.13h62.299v62.299h-62.299z" fill="none" stroke="#231f20" stroke-miterlimit="22.926" stroke-width=".012"/></g></g><g clip-path="url(#bl)"><path d="m279.17 646.64c0 0.347 0.124 0.699 0.387 0.962s0.605 0.388 0.947 0.388h27.292v-6.697h-17.201l19.96-19.961-4.735-4.736-19.953 19.953v-17.201h-6.697v27.292" fill="#fff" fill-rule="evenodd"/><path d="m339.49 602.13h62.299v62.299h-62.299z" fill="#231f20"/></g><g clip-path="url(#bk)"><g clip-path="url(#bj)"><path d="m339.49 602.13h62.299v62.299h-62.299z" fill="none" stroke="#231f20" stroke-miterlimit="22.926" stroke-width=".012"/></g></g><g clip-path="url(#bi)"><path d="m385.34 646.64c0 0.347-0.124 0.699-0.387 0.962s-0.605 0.388-0.947 0.388h-27.292v-6.697h17.201l-19.96-19.961 4.735-4.736 19.953 19.953v-17.201h6.697v27.292" fill="#fff" fill-rule="evenodd"/><path d="m416.27 602.13h62.299v62.299h-62.299z" fill="#231f20"/></g><g clip-path="url(#bh)"><g clip-path="url(#bg)"><g transform="translate(416.27 602.13)"><path d="m0 0h62.299v62.299h-62.299z" fill="none" stroke="#231f20" stroke-miterlimit="22.926" stroke-width=".012"/></g></g></g><g clip-path="url(#bf)"><path d="m448.37 613.44c-0.246-0.246-0.582-0.406-0.954-0.406s-0.702 0.153-0.944 0.395l-19.298 19.298 4.735 4.736 12.164-12.163v28.228h6.697v-28.217l12.163 12.163 4.736-4.736-19.299-19.298" fill="#fff" fill-rule="evenodd"/><path d="m493.05 602.13h62.299v62.299h-62.299z" fill="#231f20"/></g><g clip-path="url(#bd)"><g clip-path="url(#bc)"><path d="m493.05 602.14h62.299v62.299h-62.299z" fill="none" stroke="#231f20" stroke-miterlimit="22.926" stroke-width=".012"/></g></g><g clip-path="url(#bb)"><path d="m504.36 632.34c-0.246 0.246-0.406 0.582-0.406 0.954s0.153 0.702 0.395 0.944l19.298 19.298 4.736-4.735-12.163-12.164h28.228v-6.697h-28.217l12.163-12.163-4.736-4.736-19.298 19.299" fill="#fff" fill-rule="evenodd"/><g fill="#231f20"><text transform="matrix(1 0 0 -1 508.02 591.51)" font-family="'Franklin Gothic Book'" font-size="7px"><tspan x="0 4.5310998 6.2831998 10.1213 14.2254 16.1595 19.913601 24.0177 28.121799 32.225899" y="0">G-01-A006 </tspan></text><text transform="matrix(1 0 0 -1 519.19 584.31)" font-family="'Franklin Gothic Book'" font-size="6px"><tspan x="0 2.9375999 6.0612001 8.0268002 9.8724003" y="0">Left </tspan></text><path d="m109.16 498.67h62.299v62.299h-62.299z"/></g></g><g clip-path="url(#ba)"><g clip-path="url(#az)"><path d="m109.16 498.67h62.299v62.299h-62.299z" fill="none" stroke="#231f20" stroke-miterlimit="22.926" stroke-width=".012"/></g></g><g clip-path="url(#ay)"><path d="m160.16 528.87c0.246 0.246 0.406 0.582 0.406 0.954s-0.153 0.702-0.395 0.944l-19.298 19.298-4.736-4.735 12.163-12.164h-28.228v-6.697h28.217l-12.163-12.163 4.736-4.735 19.298 19.298" fill="#fff" fill-rule="evenodd"/><g fill="#231f20"><text transform="matrix(1 0 0 -1 124.33 488.04)" font-family="'Franklin Gothic Book'" font-size="7px"><tspan x="0 4.5303998 6.2817998 10.1192 14.2226 16.156 19.909401 24.0128 27.724199 31.8276" y="0">G-01-A007 </tspan></text><text transform="matrix(1 0 0 -1 133.7 480.84)" font-family="'Franklin Gothic Book'" font-size="6px"><tspan x="0 3.6786001 5.0531998 7.9998002 11.2404 13.089" y="0">Right </tspan></text><path d="m185.94 498.67h62.299v62.299h-62.299z"/></g></g><g clip-path="url(#ax)"><g clip-path="url(#aw)"><g transform="translate(248.24 560.97)"><path d="M -62.299,-62.299 H 0 V 0 h -62.299 z" fill="none" stroke="#231f20" stroke-miterlimit="22.926" stroke-width=".012"/></g></g></g><g clip-path="url(#av)"><path d="m216.14 549.66c0.246 0.246 0.582 0.406 0.954 0.406s0.702-0.153 0.944-0.395l19.298-19.298-4.735-4.736-12.164 12.163v-28.228h-6.697v28.217l-12.163-12.163-4.736 4.736 19.299 19.298" fill="#fff" fill-rule="evenodd"/><g fill="#231f20"><g font-family="'Franklin Gothic Book'"><text transform="matrix(1 0 0 -1 200.91 488.04)" font-size="7px"><tspan x="0 4.5303998 6.2817998 10.1192 14.2296 16.163 19.909401 24.0128 28.116199 32.219601" y="0">G-01-A008 </tspan></text><text transform="matrix(1 0 0 -1 213.62 480.84)" font-size="6px"><tspan x="0 3.6059999 6.7800002" y="0">Up </tspan></text><text transform="matrix(1 0 0 -1 198.37 473.64)" font-size="6px"><tspan x="0 3.414 5.2620001 7.2420001 10.416 11.79 14.736 17.976 19.823999 21.3216 24.5376 27.777599 30.903601 34.077599 37.3116" y="0">Straight Ahead </tspan></text></g><path d="m262.72 498.67h62.299v62.299h-62.299z"/></g></g><g clip-path="url(#au)"><g clip-path="url(#at)"><path d="m262.72 498.67h62.299v62.299h-62.299z" fill="none" stroke="#231f20" stroke-miterlimit="22.926" stroke-width=".012"/></g></g><g clip-path="url(#as)"><path d="m285.5 509.82c0.151-0.151 0.358-0.25 0.587-0.25s0.432 0.094 0.581 0.243l11.876 11.876-2.914 2.914-7.486-7.485v20.235c0 4.743 3.847 8.59 8.591 8.59 4.743 0 8.59-3.847 8.59-8.59v-23.111h4.121v23.111c0 7.019-5.692 12.712-12.711 12.712-7.02 0-12.712-5.693-12.712-12.712v-20.228l-7.485 7.485-2.914-2.914 11.876-11.876" fill="#fff" fill-rule="evenodd"/><g fill="#231f20"><text transform="matrix(1 0 0 -1 277.69 488.04)" font-family="'Franklin Gothic Book'" font-size="7px"><tspan x="0 4.5310998 6.2831998 10.1213 14.2254 16.1595 19.913601 24.0177 28.121799 32.225899" y="0">G-01-A009 </tspan></text><text transform="matrix(1 0 0 -1 285.84 480.84)" font-family="'Franklin Gothic Book'" font-size="6px"><tspan x="0 3.6359999 4.9439998 7.434 10.686 12.666 15.918" y="0">U-Turn </tspan></text><path d="m109.16 395.2h62.299v62.3h-62.299z"/></g></g><g clip-path="url(#ar)"><g clip-path="url(#aq)"><path d="m109.16 395.2h62.299v62.3h-62.299z" fill="none" stroke="#231f20" stroke-miterlimit="22.926" stroke-width=".012"/></g></g><g clip-path="url(#ap)"><path d="m132.38 418.68 9.89-9.889-3.85-3.851-15.692 15.691c-0.196 0.197-0.321 0.465-0.321 0.768 0 0.302 0.131 0.576 0.33 0.775l15.691 15.692 3.851-3.851-9.889-9.889 19.057 5e-3c0.594 0 1.08 0.473 1.099 1.062l1e-3 22.578h5.682v-23.398c0-3.138-2.545-5.683-5.682-5.683l-20.167-0.01" fill="#fff" fill-rule="evenodd"/><g fill="#231f20"><g font-family="'Franklin Gothic Book'"><g font-size="7px"><text transform="matrix(1 0 0 -1 124.38 384.58)"><tspan x="0 4.5296998 6.2803998 10.1171 14.2198 16.1525 19.905199 23.741899 27.6206 31.723301" y="0">G-01-A010 </tspan></text><text transform="matrix(1 0 0 -1 201.11 384.58)"><tspan x="0 4.5296998 6.2803998 10.1171 14.2198 16.1525 19.905199 23.741899 27.718599 31.821301" y="0">G-01-A011 </tspan></text><text transform="matrix(1 0 0 -1 277.82 384.58)"><tspan x="0 4.5296998 6.2803998 10.1171 14.2198 16.1525 19.905199 23.741899 27.844601 31.9473" y="0">G-01-A012 </tspan></text><text transform="matrix(1 0 0 -1 354.62 384.58)"><tspan x="0 4.5296998 6.2803998 10.1171 14.2198 16.1525 19.905199 23.741899 27.788601 31.8913" y="0">G-01-A013 </tspan></text><text transform="matrix(1 0 0 -1 431.48 384.58)"><tspan x="0 4.5296998 6.2803998 10.1171 14.2198 16.1525 19.905199 23.741899 27.6206 31.723301" y="0">G-01-A014 </tspan></text><text transform="matrix(1 0 0 -1 508.2 384.58)"><tspan x="0 4.5296998 6.2803998 10.1171 14.2198 16.1525 19.905199 23.741899 27.753599 31.8563" y="0">G-01-A015 </tspan></text></g><g font-size="6px"><text transform="matrix(1 0 0 -1 121 377.38)"><tspan x="0 3.414 5.2620001 7.2420001 10.416 11.79 14.736 17.976 19.823999 21.3228 25.2048 28.246799 32.230801 35.4828 36.981602 38.481602" y="0">Straight Down - </tspan></text><text transform="matrix(1 0 0 -1 197.78 377.38)"><tspan x="0 3.414 5.2620001 7.2420001 10.416 11.79 14.736 17.976 19.823999 21.3228 25.2048 28.246799 32.230801 35.4828 36.981602 38.481602" y="0">Straight Down - </tspan></text><text transform="matrix(1 0 0 -1 278.23 377.38)"><tspan x="0 3.4116001 5.2571998 7.2347999 10.4064 11.778 14.7216 17.9592 19.8048 21.302401 24.936001 28.1376 29.635201" y="0">Straight Up -</tspan></text><text transform="matrix(1 0 0 -1 355 377.38)"><tspan x="0 3.4122 5.2584 7.2365999 10.4088 11.781 14.7252 17.9634 19.809601 21.3078 24.941999 28.144199 29.642401" y="0">Straight Up -</tspan></text><text transform="matrix(1 0 0 -1 430.25 377.38)"><tspan x="0 3.4133999 5.2607999 7.2402 10.4136 11.787 14.7324 17.9718 19.819201 21.3186 24.257999 27.3834 29.3508 31.1982 32.697601 34.196999" y="0">Straight Left - </tspan></text><text transform="matrix(1 0 0 -1 505.42 377.38)"><tspan x="0 3.414 5.2620001 7.2420001 10.416 11.79 14.736 17.976 19.823999 21.322201 25.0002 26.374201 29.3202 32.5602 34.408199 35.906399" y="0">Straight Right -</tspan></text><text transform="matrix(1 0 0 -1 129.07 370.18)"><tspan x="0 2.9388001 6.0636001 8.0304003 9.8772001 11.376 13.8708 17.121599 19.100401 22.3512" y="0">Left Turn </tspan></text><text transform="matrix(1 0 0 -1 204.24 370.18)"><tspan x="0 3.6786001 5.0531998 7.9998002 11.2404 13.089 14.5896 17.0802 20.3328 22.3134 25.566" y="0">Right Turn </tspan></text><text transform="matrix(1 0 0 -1 282.62 370.18)"><tspan x="0 2.9388001 6.0636001 8.0304003 9.8772001 11.376 13.8708 17.121599 19.100401 22.3512" y="0">Left Turn </tspan></text><text transform="matrix(1 0 0 -1 359.4 370.18)"><tspan x="0 2.9388001 6.0636001 8.0304003 9.8772001 11.376 13.8708 17.121599 19.100401 22.3512" y="0">Left Turn </tspan></text><text transform="matrix(1 0 0 -1 434.03 370.18)"><tspan x="0 3.8814001 6.9228001 10.9062 14.1576 15.6576 18.153 21.4044 23.383801 26.635201" y="0">Down Turn </tspan></text><text transform="matrix(1 0 0 -1 510.81 370.18)"><tspan x="0 3.8814001 6.9228001 10.9062 14.1576 15.6576 18.153 21.4044 23.383801 26.635201" y="0">Down Turn </tspan></text></g></g><path d="m185.94 395.2h62.299v62.3h-62.299z"/></g></g><g clip-path="url(#ao)"><g clip-path="url(#an)"><path d="m185.94 395.2h62.299v62.3h-62.299z" fill="none" stroke="#231f20" stroke-miterlimit="22.926" stroke-width=".012"/></g></g><g clip-path="url(#am)"><path d="m225.03 418.68-9.89-9.889 3.85-3.851 15.692 15.691c0.196 0.197 0.321 0.465 0.321 0.768 0 0.302-0.131 0.576-0.33 0.775l-15.691 15.692-3.851-3.851 9.889-9.889-19.057 5e-3c-0.594 0-1.08 0.473-1.099 1.062l-1e-3 22.578h-5.682v-23.398c0-3.138 2.545-5.683 5.682-5.683l20.167-0.01" fill="#fff" fill-rule="evenodd"/><path d="m262.72 395.2h62.299v62.3h-62.299z" fill="#231f20"/></g><g clip-path="url(#al)"><g clip-path="url(#ak)"><path d="m262.72 395.2h62.299v62.3h-62.299z" fill="none" stroke="#231f20" stroke-miterlimit="22.926" stroke-width=".012"/></g></g><g clip-path="url(#aj)"><path d="m285.93 434.03 9.89 9.889-3.85 3.851-15.692-15.691c-0.196-0.197-0.321-0.465-0.321-0.768 0-0.302 0.131-0.576 0.33-0.775l15.691-15.692 3.851 3.851-9.889 9.89 19.057-6e-3c0.594 0 1.08-0.473 1.099-1.062l1e-3 -22.578h5.682v23.398c0 3.138-2.545 5.683-5.682 5.683l-20.167 0.01" fill="#fff" fill-rule="evenodd"/><path d="m339.49 395.2h62.299v62.3h-62.299z" fill="#231f20"/></g><g clip-path="url(#ai)"><g clip-path="url(#ah)"><path d="m339.49 395.2h62.299v62.3h-62.299z" fill="none" stroke="#231f20" stroke-miterlimit="22.926" stroke-width=".012"/></g></g><g clip-path="url(#ag)"><path d="m378.58 434.03-9.89 9.889 3.85 3.851 15.692-15.691c0.196-0.197 0.321-0.465 0.321-0.768 0-0.302-0.131-0.576-0.33-0.775l-15.691-15.692-3.851 3.851 9.889 9.89-19.057-6e-3c-0.594 0-1.08-0.473-1.099-1.062l-1e-3 -22.578h-5.682v23.398c0 3.138 2.545 5.683 5.682 5.683l20.167 0.01" fill="#fff" fill-rule="evenodd"/><path d="m416.27 395.2h62.299v62.3h-62.299z" fill="#231f20"/></g><g clip-path="url(#af)"><g clip-path="url(#ae)"><g transform="translate(416.27 457.5)"><path d="m0-62.3h62.299v62.3h-62.299z" fill="none" stroke="#231f20" stroke-miterlimit="22.926" stroke-width=".012"/></g></g></g><g clip-path="url(#ad)"><path d="m439.74 418.42-9.889 9.89-3.851-3.85 15.691-15.692c0.197-0.196 0.465-0.321 0.768-0.321 0.302 0 0.576 0.131 0.775 0.33l15.692 15.691-3.851 3.851-9.889-9.889 5e-3 19.057c0 0.594 0.473 1.08 1.062 1.099l22.578 1e-3v5.682h-23.398c-3.138 0-5.683-2.545-5.683-5.682l-0.01-20.167" fill="#fff" fill-rule="evenodd"/><path d="m493.05 395.2h62.299v62.3h-62.299z" fill="#231f20"/></g><g clip-path="url(#ac)"><g clip-path="url(#ab)"><g transform="translate(555.35 457.5)"><path d="m-62.299-62.3h62.299v62.3h-62.299z" fill="none" stroke="#231f20" stroke-miterlimit="22.926" stroke-width=".012"/></g></g></g><g clip-path="url(#aa)"><path d="m531.87 418.42 9.889 9.89 3.851-3.85-15.691-15.692c-0.197-0.196-0.465-0.321-0.768-0.321-0.302 0-0.576 0.131-0.775 0.33l-15.692 15.691 3.851 3.851 9.889-9.889-5e-3 19.057c0 0.594-0.473 1.08-1.062 1.099l-22.578 1e-3v5.682h23.398c3.138 0 5.683-2.545 5.683-5.682l0.01-20.167" fill="#fff" fill-rule="evenodd"/><path d="m109.16 291.74h62.299v62.299h-62.299z" fill="#231f20"/></g><g clip-path="url(#z)"><g clip-path="url(#y)"><g transform="translate(109.16 291.74)"><path d="m0 0h62.299v62.299h-62.299z" fill="none" stroke="#231f20" stroke-miterlimit="22.926" stroke-width=".012"/></g></g></g><g clip-path="url(#x)"><path d="m132.64 330.83-9.889-9.89-3.851 3.85 15.691 15.692c0.197 0.196 0.465 0.321 0.768 0.321 0.302 0 0.576-0.131 0.775-0.33l15.692-15.691-3.851-3.851-9.889 9.889 5e-3 -19.057c0-0.594 0.473-1.08 1.062-1.099l22.578-1e-3v-5.682h-23.398c-3.138 0-5.683 2.545-5.683 5.682l-0.01 20.167" fill="#fff" fill-rule="evenodd"/><g fill="#231f20"><g font-family="'Franklin Gothic Book'"><text transform="matrix(1 0 0 -1 124.39 281.11)" font-size="7px"><tspan x="0 4.5296998 6.2803998 10.1171 14.2198 16.1525 19.905199 23.741899 27.6066 31.709299" y="0">G-01-A016 </tspan></text><text transform="matrix(1 0 0 -1 123.15 273.91)" font-size="6px"><tspan x="0 3.4133999 5.2607999 7.2402 10.4136 11.787 14.7324 17.9718 19.819201 21.3186 24.257999 27.3834 29.3508 31.1982 32.697601 34.196999" y="0">Straight Left - </tspan></text><text transform="matrix(1 0 0 -1 130.6 266.71)" font-size="6px"><tspan x="0 3.6312001 6.8304 8.3304005 10.8216 14.0688 16.044001 19.291201" y="0">Up Turn </tspan></text></g><path d="m185.94 291.74h62.299v62.299h-62.299z"/></g></g><g clip-path="url(#w)"><g clip-path="url(#v)"><g transform="translate(248.24 291.74)"><path d="m-62.299 0h62.299v62.299h-62.299z" fill="none" stroke="#231f20" stroke-miterlimit="22.926" stroke-width=".012"/></g></g></g><g clip-path="url(#u)"><path d="m224.77 330.83 9.889-9.89 3.851 3.85-15.691 15.692c-0.197 0.196-0.465 0.321-0.768 0.321-0.302 0-0.576-0.131-0.775-0.33l-15.692-15.691 3.851-3.851 9.889 9.889-5e-3 -19.057c0-0.594-0.473-1.08-1.062-1.099l-22.578-1e-3v-5.682h23.398c3.138 0 5.683 2.545 5.683 5.682l0.01 20.167" fill="#fff" fill-rule="evenodd"/><g fill="#231f20"><g font-family="'Franklin Gothic Book'"><text transform="matrix(1 0 0 -1 201.29 281.11)" font-size="7px"><tspan x="0 4.5296998 6.2803998 10.1171 14.2198 16.1525 19.905199 23.741899 27.368601 31.4713" y="0">G-01-A017 </tspan></text><text transform="matrix(1 0 0 -1 198.32 273.91)" font-size="6px"><tspan x="0 3.414 5.2620001 7.2420001 10.416 11.79 14.736 17.976 19.823999 21.322201 25.0002 26.374201 29.3202 32.5602 34.408199 35.906399 37.406399" y="0">Straight Right - </tspan></text><text transform="matrix(1 0 0 -1 207.38 266.71)" font-size="6px"><tspan x="0 3.6312001 6.8304 8.3304005 10.8216 14.0688 16.044001 19.291201" y="0">Up Turn </tspan></text></g><path d="m109.16 188.56h62.299v62.299h-62.299z"/></g></g><g clip-path="url(#t)"><g clip-path="url(#s)"><path d="m109.16 188.56h62.299v62.299h-62.299z" fill="none" stroke="#231f20" stroke-miterlimit="22.926" stroke-width=".012"/></g></g><g clip-path="url(#r)"><g transform="translate(147.23 239.96)"><path d="m0 0h5.549l-1e-3 -15.504c0-2.368-0.873-4.68-2.537-6.346l-13.311-13.327h13.658v-5.318h-21.67c-0.272 0-0.542 0.099-0.751 0.308s-0.308 0.488-0.308 0.764v21.67h5.317v-13.658l13.062 13.067c0.621 0.621 0.991 1.501 0.991 2.444z" fill="#fff" fill-rule="evenodd" stroke="#231f20" stroke-miterlimit="22.926" stroke-width=".012"/></g><g fill="#231f20"><g font-family="'Franklin Gothic Book'"><g font-size="7px"><text transform="matrix(1 0 0 -1 124.14 177.93)"><tspan x="0 4.5296998 6.2803998 10.1171 14.2198 16.1525 19.905199 24.0079 28.1106 32.213299" y="0">G-01-A020 </tspan></text><text transform="matrix(1 0 0 -1 201.04 177.93)"><tspan x="0 4.5282998 6.2775998 10.1129 14.2212 16.1525 19.903799 24.0051 27.861401 31.9627" y="0">G-01-A021 </tspan></text><text transform="matrix(1 0 0 -1 277.69 177.93)"><tspan x="0 4.5296998 6.2803998 10.1171 14.2198 16.1525 19.905199 24.0079 28.1106 32.213299" y="0">G-01-A022 </tspan></text><text transform="matrix(1 0 0 -1 354.46 177.93)"><tspan x="0 4.5310998 6.2831998 10.1213 14.2254 16.1595 19.913601 24.0177 28.121799 32.225899" y="0">G-01-A023 </tspan></text><text transform="matrix(1 0 0 -1 431.39 177.93)"><tspan x="0 4.5282998 6.2775998 10.1129 14.2212 16.1525 19.903799 24.0051 27.798401 31.8997" y="0">G-01-A024 </tspan></text><text transform="matrix(1 0 0 -1 508.02 177.93)"><tspan x="0 4.5310998 6.2831998 10.1213 14.2254 16.1595 19.913601 24.0177 28.121799 32.225899" y="0">G-01-A025 </tspan></text></g><g font-size="6px"><text transform="matrix(1 0 0 -1 109.1 170.73)"><tspan x="0 3.414 5.2620001 7.2420001 10.416 11.79 14.736 17.976 19.823999 21.3234 25.2054 28.2474 32.2314 35.483398 36.9828 38.4828 39.982201 43.864201 45.238201 48.412201 51.3582 54.478199 57.730202 60.904202 62.284199" y="0">Straight Down - Diagonal </tspan></text><text transform="matrix(1 0 0 -1 185.88 170.73)"><tspan x="0 3.414 5.2620001 7.2420001 10.416 11.79 14.736 17.976 19.823999 21.3234 25.2054 28.2474 32.2314 35.483398 36.9828 38.4828 39.982201 43.864201 45.238201 48.412201 51.3582 54.478199 57.730202 60.904202 62.284199" y="0">Straight Down - Diagonal </tspan></text><text transform="matrix(1 0 0 -1 266.33 170.73)"><tspan x="0 3.4128001 5.2596002 7.2384 10.4112 11.784 14.7288 17.9676 19.8144 21.3132 24.948 28.150801 29.649599 31.148399 32.647202 36.528 37.900799 41.073601 44.018398 47.137199 50.388 53.560799 54.939602" y="0">Straight Up - Diagonal </tspan></text><text transform="matrix(1 0 0 -1 343.1 170.73)"><tspan x="0 3.4128001 5.2596002 7.2384 10.4112 11.784 14.7288 17.9676 19.8144 21.3132 24.948 28.150801 29.649599 31.148399 32.647202 36.528 37.900799 41.073601 44.018398 47.137199 50.388 53.560799 54.939602" y="0">Straight Up - Diagonal </tspan></text><text transform="matrix(1 0 0 -1 418.35 170.73)"><tspan x="0 3.4133999 5.2607999 7.2402 10.4136 11.787 14.7324 17.9718 19.819201 21.3186 24.257999 27.3834 29.3508 31.1982 32.697601 34.196999 35.6964 39.577801 40.951199 44.124599 47.07 50.1894 53.4408 56.614201 57.993599" y="0">Straight Left - Diagonal </tspan></text><text transform="matrix(1 0 0 -1 493.52 170.73)"><tspan x="0 3.414 5.2620001 7.2420001 10.416 11.79 14.736 17.976 19.823999 21.3234 25.0014 26.375401 29.3214 32.561401 34.409401 35.908798 37.408798 38.908199 42.790199 44.1642 47.3382 50.284199 53.404202 56.6562 59.8302 61.210201" y="0">Straight Right - Diagonal </tspan></text><text transform="matrix(1 0 0 -1 127.06 163.53)"><tspan x="0 2.9394 5.9808002 9.8802004 13.0056 14.985 16.478399 19.417801 22.5432 24.510599 26.358" y="0">Lower Left </tspan></text><text transform="matrix(1 0 0 -1 202.23 163.53)"><tspan x="0 2.9388001 5.9796 9.8783998 13.0032 14.982 16.482 20.1588 21.531601 24.4764 27.7152 29.562" y="0">Lower Right </tspan></text><text transform="matrix(1 0 0 -1 280.55 163.53)"><tspan x="0 3.6282001 6.8243999 10.0326 13.1568 15.129 16.629 19.561199 22.679399 24.645599 26.4858" y="0">Upper Left </tspan></text><text transform="matrix(1 0 0 -1 355.72 163.53)"><tspan x="0 3.6287999 6.8256001 10.0284 13.1532 15.126 16.625999 20.296801 21.663601 24.614401 27.853201 29.694" y="0">Upper Right </tspan></text><text transform="matrix(1 0 0 -1 434.58 163.53)"><tspan x="0 2.9382 6.0623999 8.0285997 9.8747997 11.373 15.2532 18.2934 22.2756 25.525801" y="0">Left Down </tspan></text><text transform="matrix(1 0 0 -1 509.75 163.53)"><tspan x="0 3.678 5.052 7.9980001 11.238 13.086 14.583 18.465 21.507 25.490999 28.743" y="0">Right Down </tspan></text></g></g><path d="m185.94 188.56h62.299v62.299h-62.299z"/></g></g><g clip-path="url(#p)"><g clip-path="url(#o)"><path d="m185.94 188.56h62.299v62.299h-62.299z" fill="none" stroke="#231f20" stroke-miterlimit="22.926" stroke-width=".012"/></g></g><g clip-path="url(#m)"><g transform="translate(210.18 239.96)"><path d="m0 0h-5.549l1e-3 -15.504c0-2.368 0.873-4.68 2.537-6.346l13.311-13.327h-13.658v-5.318h21.67c0.272 0 0.542 0.099 0.751 0.308s0.308 0.488 0.308 0.764v21.67h-5.317v-13.658l-13.062 13.067c-0.622 0.621-0.991 1.501-0.991 2.444z" fill="#fff" fill-rule="evenodd" stroke="#231f20" stroke-miterlimit="22.926" stroke-width=".012"/></g><path d="m262.72 188.56h62.299v62.299h-62.299z" fill="#231f20"/></g><g clip-path="url(#l)"><g clip-path="url(#k)"><path d="m262.72 188.56h62.299v62.299h-62.299z" fill="none" stroke="#231f20" stroke-miterlimit="22.926" stroke-width=".012"/></g></g><g clip-path="url(#j)"><g transform="translate(300.78 199.46)"><path d="m0 0h5.549l-1e-3 15.504c0 2.368-0.873 4.68-2.537 6.346l-13.311 13.327h13.658v5.318h-21.67c-0.272 0-0.542-0.099-0.751-0.308s-0.308-0.488-0.308-0.764v-21.67h5.317v13.658l13.062-13.067c0.621-0.621 0.991-1.501 0.991-2.444z" fill="#fff" fill-rule="evenodd" stroke="#231f20" stroke-miterlimit="22.926" stroke-width=".012"/></g><path d="m339.49 188.56h62.299v62.299h-62.299z" fill="#231f20"/></g><g clip-path="url(#i)"><g clip-path="url(#h)"><path d="m339.49 188.56h62.299v62.299h-62.299z" fill="none" stroke="#231f20" stroke-miterlimit="22.926" stroke-width=".012"/></g></g><g clip-path="url(#g)"><g transform="translate(363.73 199.46)"><path d="m0 0h-5.549l1e-3 15.504c0 2.368 0.873 4.68 2.537 6.346l13.311 13.327h-13.658v5.318h21.67c0.272 0 0.542-0.099 0.751-0.308s0.308-0.488 0.308-0.764v-21.67h-5.317v13.658l-13.062-13.067c-0.621-0.621-0.991-1.501-0.991-2.444z" fill="#fff" fill-rule="evenodd" stroke="#231f20" stroke-miterlimit="22.926" stroke-width=".012"/></g><path d="m416.27 188.56h62.299v62.299h-62.299z" fill="#231f20"/></g><g clip-path="url(#f)"><g clip-path="url(#e)"><g transform="translate(416.27 250.86)"><path d="M 0,-62.299 H 62.299 V 0 H 0 Z" fill="none" stroke="#231f20" stroke-miterlimit="22.926" stroke-width=".012"/></g></g></g><g clip-path="url(#d)"><g transform="translate(467.67 226.62)"><path d="m0 0v5.549l-15.504-1e-3c-2.368 0-4.68-0.873-6.346-2.537l-13.327-13.311v13.658h-5.318v-21.67c0-0.272 0.099-0.542 0.308-0.751s0.488-0.308 0.764-0.308h21.67v5.317h-13.658l13.067 13.062c0.621 0.621 1.501 0.991 2.444 0.991z" fill="#fff" fill-rule="evenodd" stroke="#231f20" stroke-miterlimit="22.926" stroke-width=".012"/></g><path d="m493.05 188.56h62.299v62.299h-62.299z" fill="#231f20"/></g><g clip-path="url(#b)"><g clip-path="url(#a)"><g transform="translate(555.35 250.86)"><path d="M -62.299,-62.299 H 0 V 0 h -62.299 z" fill="none" stroke="#231f20" stroke-miterlimit="22.926" stroke-width=".012"/></g></g></g><g clip-path="url(#bx)"><g transform="translate(503.95 226.62)"><path d="m0 0v5.549l15.504-1e-3c2.368 0 4.68-0.873 6.346-2.537l13.327-13.311v13.658h5.318v-21.67c0-0.272-0.099-0.542-0.308-0.751s-0.488-0.308-0.764-0.308h-21.67v5.317h13.658l-13.067 13.062c-0.621 0.621-1.501 0.991-2.444 0.991z" fill="#fff" fill-rule="evenodd" stroke="#231f20" stroke-miterlimit="22.926" stroke-width=".012"/></g><path d="m109.16 85.094h62.299v62.3h-62.299z" fill="#231f20"/></g><g clip-path="url(#bw)"><g clip-path="url(#bv)"><g transform="translate(109.16 85.094)"><path d="m0 0h62.299v62.3h-62.299z" fill="none" stroke="#231f20" stroke-miterlimit="22.926" stroke-width=".012"/></g></g></g><g clip-path="url(#bu)"><g transform="translate(160.56 109.33)"><path d="m0 0v-5.549l-15.504 1e-3c-2.368 0-4.68 0.873-6.346 2.537l-13.327 13.311v-13.658h-5.318v21.67c0 0.272 0.099 0.543 0.308 0.751 0.209 0.209 0.488 0.308 0.764 0.308h21.67v-5.317h-13.658l13.067-13.062c0.621-0.621 1.501-0.991 2.444-0.991z" fill="#fff" fill-rule="evenodd" stroke="#231f20" stroke-miterlimit="22.926" stroke-width=".012"/></g><g fill="#231f20"><g font-family="'Franklin Gothic Book'"><text transform="matrix(1 0 0 -1 124.14 74.469)" font-size="7px"><tspan x="0 4.5310998 6.2831998 10.1213 14.2254 16.1595 19.913601 24.0177 28.121799 32.225899" y="0">G-01-A026 </tspan></text><text transform="matrix(1 0 0 -1 111.25 67.269)" font-size="6px"><tspan x="0 3.4133999 5.2607999 7.2402 10.4136 11.787 14.7324 17.9718 19.819201 21.3186 24.257999 27.3834 29.3508 31.1982 32.697601 34.196999 35.6964 39.577801 40.951199 44.124599 47.07 50.1894 53.4408 56.614201 57.993599" y="0">Straight Left - Diagonal </tspan></text><text transform="matrix(1 0 0 -1 131.15 60.069)" font-size="6px"><tspan x="0 2.9268 6.0395999 8.0064001 9.8532 11.352 14.9748 18.1656" y="0">Left Up </tspan></text></g><path d="m185.94 85.094h62.299v62.3h-62.299z"/></g></g><g clip-path="url(#bt)"><g clip-path="url(#bs)"><g transform="translate(248.24 85.094)"><path d="m-62.299 0h62.299v62.3h-62.299z" fill="none" stroke="#231f20" stroke-miterlimit="22.926" stroke-width=".012"/></g></g></g><g clip-path="url(#br)"><g transform="translate(196.84 109.33)"><path d="m0 0v-5.549l15.504 1e-3c2.368 0 4.68 0.873 6.346 2.537l13.327 13.311v-13.658h5.318v21.67c0 0.272-0.099 0.543-0.308 0.751-0.209 0.209-0.488 0.308-0.764 0.308h-21.67v-5.317h13.658l-13.067-13.062c-0.621-0.621-1.501-0.991-2.444-0.991z" fill="#fff" fill-rule="evenodd" stroke="#231f20" stroke-miterlimit="22.926" stroke-width=".012"/></g><g fill="#231f20" font-family="'Franklin Gothic Book'"><g><text transform="matrix(1 0 0 -1 201.07 74.469)" font-size="7px"><tspan x="0 4.5303998 6.2817998 10.1192 14.2226 16.156 19.909401 24.0128 27.808201 31.9116" y="0">G-01-A027 </tspan></text><text transform="matrix(1 0 0 -1 188.02 67.269)" font-size="6px"><tspan x="0 3.4133999 5.2607999 7.2402 10.4136 11.787 14.7324 17.9718 19.819201 21.3186 24.257999 27.3834 29.3508 31.1982 32.697601 34.196999 35.6964 39.577801 40.951199 44.124599 47.07 50.1894 53.4408 56.614201 57.993599" y="0">Straight Left - Diagonal </tspan></text><text transform="matrix(1 0 0 -1 206.32 60.069)" font-size="6px"><tspan x="0 3.6714001 5.0387998 7.9782 11.2116 13.053 14.5524 18.181801 21.3792" y="0">Right Up </tspan></text><text transform="matrix(1 0 0 -1 225.07 30.391)" font-size="9px"><tspan x="0 3.3650999 8.2421999 10.3113 14.0454 16.295401 21.4965 23.754601 26.004601 31.2777 36.208801 41.2029 46.476002" y="0">July 1, 2014 </tspan></text></g><text transform="matrix(1 0 0 -1 543.52 29.691)" font-size="10px" font-weight="500"><tspan x="0 5.8639998" y="0">35</tspan></text><g font-size="9px"><text transform="matrix(1 0 0 -1 143.39 30.391)"><tspan x="0 5.8221002 11.3382 16.161301 20.732401 25.0965" y="0">DRAFT </tspan></text><text transform="matrix(1 0 0 -1 196.95 30.391)" font-weight="500"><tspan x="0 5.8941002 10.7622 13.5333 18.2484" y="0">Date </tspan></text><text transform="matrix(1 0 0 -1 217.46 30.391)"><tspan x="0 4.5 7.6139998 12.735 17.424 22.23 24.849001 29.538 36.863998 41.696999 46.386002 49.355999 51.605999 56.591999 61.866001 64.115997 66.365997 71.639999 76.571999 81.567001 86.841003" y="0">| September 10, 2014 </tspan></text></g></g></g></g></svg>
